<svg xmlns="http://www.w3.org/2000/svg" width="400" height="400" viewBox="0 0 400 400"><path d="M345.5 60.4C345.5 60.5 346.5 61.8 347.9 63.4 349.2 64.9 350.2 66.3 350.2 66.4 350.1 66.6 317.1 93.5 282 122L278.3 125 264.1 110.5C250.3 96.4 248.4 94.6 245.1 92.9 239.8 90.3 232.1 90.3 226.8 93 223.8 94.5 222.8 95.4 203.3 113.6 186.1 129.6 184.2 131.3 183.6 131 183.3 130.8 174.7 123 164.4 113.7 139.2 90.8 139.2 90.8 129.9 90.9 122.2 90.9 120.1 92.1 109.1 102.7 105.1 106.6 84.2 126.7 62.7 147.4 41.3 168.1 23.7 185.1 23.8 185.2 23.8 185.3 26.8 188.4 30.3 192.1L36.7 198.8 61.1 175.3C74.5 162.4 94.4 143.3 105.3 132.8 128.6 110.4 128.3 110.6 134.2 111.7 138.5 112.4 137.4 111.4 161.5 135.7L183.6 158 205.9 137.1C231.8 112.8 230.4 113.9 235.7 113.9 240.8 113.9 240.9 114 252.6 125.9 257.9 131.4 265.6 139.2 269.6 143.2L276.9 150.6 319.7 115.9C343.2 96.8 362.5 81.2 362.6 81.2 362.8 81.3 364.6 83.4 366.7 85.9 370.4 90.3 370.5 90.4 370.7 89.6 371.1 88 375.2 60.7 375.1 60.6 374.9 60.5 345.5 60.3 345.5 60.4M131.1 139.8C125.6 140.9 128.9 137.9 82 184.8 43.6 223.4 40 227 39.2 228.7 35.8 235.6 36.5 243.4 41.1 249.2 43.9 252.9 123.6 332 125.6 333.2 131.6 336.6 138.3 336.7 144.4 333.5 146.6 332.4 147.6 331.5 154.3 324.9L161.8 317.5 166.9 322.8C169.7 325.8 173.7 329.9 175.7 332L179.4 335.8 185.2 330.4C188.4 327.4 191.5 324.4 192.3 323.7L193.6 322.4 184.7 313.2C179.8 308.2 175.8 303.9 175.8 303.8 175.7 303.7 178.1 301.2 181 298.2L186.4 292.9 206.1 312.6C229.7 336.1 229.2 335.8 237.1 335.8 244.1 335.8 246.7 334.4 255.3 325.9 258.9 322.3 261.9 319.4 262 319.4 262.1 319.4 265.7 323 270 327.5 274.2 331.9 277.9 335.6 278 335.6 278.1 335.6 281.3 332.6 285.2 329.1L292.1 322.6 291 321.4C287.7 317.7 248.5 277 248.3 277.1 247.7 277.3 234.4 290 234.5 290.3 234.5 290.5 237.2 293.4 240.5 296.8 243.8 300.3 246.5 303.2 246.5 303.3 246.5 303.4 244.5 305.6 241.9 308.2L237.3 312.7 219.6 295 201.9 277.3 215.7 263.5C223.9 255.3 230 248.9 230.6 247.9 233.7 243.3 234.5 237.4 232.8 232 231.5 227.6 231.4 227.6 216.2 212.2L201.9 197.9 219.6 180.2 237.3 162.5 257.3 182.5 277.3 202.5 285.1 195C289.4 190.8 292.9 187.4 293 187.3 293 187.2 283 177.1 270.7 164.8L248.4 142.6 245.9 141.4C240.2 138.6 234.5 138.6 228.7 141.4 226.2 142.6 226.2 142.6 206.3 162.5L186.4 182.4 166.4 162.5C146.7 142.8 146.5 142.6 144 141.4 139.9 139.3 135.6 138.8 131.1 139.8M153.2 180.3L170.8 197.9 156.4 212.4C139.5 229.3 139 230.2 139 237.5 139 245.2 139.8 246.4 157.5 264L170.7 277.2 165.4 282.4 160.2 287.7 155 282.3 149.8 276.9 142.7 283.5C138.9 287.2 135.7 290.2 135.7 290.3 135.7 290.4 138.1 292.9 141 295.9L146.4 301.5 140.8 307 135.3 312.6 97.8 275.1 60.3 237.6 97.8 200.1C118.4 179.5 135.3 162.7 135.4 162.7 135.5 162.7 143.5 170.6 153.2 180.3M198.4 225.6L210.4 237.5 198.3 249.6 186.2 261.6 174.2 249.6 162.2 237.6 174.2 225.6C180.8 219 186.3 213.6 186.4 213.6 186.5 213.6 191.9 219 198.4 225.6"/></svg>
